<svg version="1.1" xmlns="http://www.w3.org/2000/svg" xmlns:xlink="http://www.w3.org/1999/xlink" preserveAspectRatio="xMidYMid meet" viewBox="654 271 161 129"><g data-item-type="text" data-item="Business" id="logo__item--business" class="logo__item">
                <g class="logo__item__inner" transform="translate(655.84375 397.2765648156825) scale(1 1) rotate(0 0 0)">
                    <text data-part-id="logo__item--business" dy="0" dominant-baseline="auto" alignment-baseline="auto" font-family="Helvetica" font-size="32px" fill="#FAB909" letter-spacing="0" font-weight="bold" font-style="normal" data-font-family="Helvetica" data-font-weight="bold" data-font-style="normal" data-ttf-url="">PlutoDVB</text>
                </g>
            </g><g data-item-type="image" data-item="Image" data-logo-item="" id="logo__item--logo_0" class="logo__item">
    <g class="logo__item__inner" transform="translate(669.7567412844788 253) scale(0.8383837931570454 0.8383837931570454) rotate(0 0 0)">
        
<g>
  <path fill="none" d="M20.006,64.806c-0.484,0.044-0.9,0.187-1.279,0.372c-0.618,0.298-1.109,0.729-1.413,1.217   c-0.598,0.975-1.58,4.524-2.021,10.496c-0.038-0.015-0.088-0.039-0.124-0.054c0.042,0.039,0.077,0.078,0.12,0.116   c-0.276,3.764-0.342,8.479,0.043,14.135c0.366,5.387,1.178,10.234,2.054,14.146c5.52-9.271,15.848-22.138,34.345-32.943   c0.949-0.553,1.922-1.098,2.915-1.641c-3.12-1.123-7.122-2.321-12.133-3.395C31.043,64.791,22.696,64.562,20.006,64.806z" data-part-id="logo__item--logo_0__0"></path>
  <path fill="none" d="M18.566,109.888c0.408-0.44,0.841-0.894,1.291-1.354c-0.431,0.425-0.895,0.839-1.315,1.267   c-0.149-0.525-0.304-1.112-0.459-1.706c0.155,0.596,0.31,1.183,0.459,1.709C18.551,109.832,18.559,109.862,18.566,109.888z" data-part-id="logo__item--logo_0__1"></path>
  <path fill="none" d="M61.433,100.942h0.002c-0.028-0.879-0.066-1.74-0.109-2.586c-8.238,1.19-15.965,3.112-23.024,5.636   c6.416-1.871,14.097-3.102,23.131-3.029V100.942z" data-part-id="logo__item--logo_0__2"></path>
  <path fill="none" d="M21.014,115.673c0.252,0.248,0.514,0.465,0.801,0.615c0.305,0.281,1.488,0.603,1.775,0.475   c1.847,0.2,4.823,0.211,8.836,0.026c1.654-0.077,3.463-0.183,5.475-0.331c0.086,0.338,5.348-0.425,7.977-0.679   c10.756-1.031,19.5-3.933,20.417-4.468c0.026-0.017,0.049-0.035,0.073-0.05h-0.002c-0.142-0.016-0.286-0.041-0.427-0.058   c-1.626-0.191-3.238-0.346-4.836-0.469c-0.004,0.006-0.006,0.013-0.009,0.02c-15.035-1.172-28.867,0.683-40.088,4.896   c-0.144-0.144-0.29-0.284-0.427-0.458c-0.018-0.014-0.032-0.028-0.049-0.042c0.019,0.021,0.039,0.046,0.056,0.062   C20.723,115.389,20.869,115.528,21.014,115.673z" data-part-id="logo__item--logo_0__3"></path>
  <path fill="none" d="M38.285,103.999c-5.019,1.469-9.245,3.326-12.763,5.246c3.516-1.918,7.74-3.774,12.755-5.243   C38.279,104.002,38.283,104.001,38.285,103.999z" data-part-id="logo__item--logo_0__4"></path>
  <path fill="none" d="M20.338,114.886c0.002-0.002,0.004-0.002,0.004-0.004c-0.058-0.095-0.133-0.242-0.219-0.431   c-0.002,0.003-0.004,0.006-0.006,0.008c0.002,0,0.009,0.013,0.011,0.011C20.211,114.652,20.282,114.791,20.338,114.886z" data-part-id="logo__item--logo_0__5"></path>
  <path fill="none" d="M18.566,109.888c0.331,1.145,0.643,2.134,0.917,2.92C19.209,112.02,18.897,111.032,18.566,109.888z" data-part-id="logo__item--logo_0__6"></path>
  <path fill="none" d="M22.17,106.306c0.258-0.238,0.51-0.474,0.779-0.715C22.687,105.828,22.43,106.067,22.17,106.306z" data-part-id="logo__item--logo_0__7"></path>
  <path fill="none" d="M24.364,104.371c7.59-6.402,19.147-13.307,36.004-16.971c-0.224-1.767-0.455-3.337-0.674-4.674   C45.877,88.604,33.939,96.032,24.364,104.371z" data-part-id="logo__item--logo_0__8"></path>
  <path fill="#FAB909" d="M22.949,105.591c-0.269,0.241-0.521,0.477-0.779,0.715c-0.797,0.734-1.554,1.481-2.313,2.229   c-0.45,0.46-0.883,0.913-1.291,1.354c0.331,1.145,0.643,2.132,0.917,2.92c-0.007,0.021,0.011,0.1,0.039,0.198   c1.696-1.224,3.695-2.503,6-3.761c3.518-1.92,7.744-3.777,12.763-5.246c0.001,0,0.004,0,0.005-0.002   c0.004-0.003,0.008-0.003,0.012-0.005c7.06-2.523,14.787-4.445,23.024-5.636l0,0c0.154-0.023,0.312-0.038,0.467-0.06   c1.234-0.171,2.481-0.325,3.734-0.467c7.357-0.823,15.067-1.09,23.034-0.681c30.732,1.57,41.373-25.883,42.184-28.114   c-0.601,1.48-6.714,12.907-53.524,16.029c-4.548,0.302-8.795,0.838-12.783,1.544c-1.387,0.245-2.75,0.505-4.069,0.792   c-16.857,3.664-28.415,10.568-36.004,16.971C23.895,104.779,23.406,105.178,22.949,105.591z" data-part-id="logo__item--logo_0__9"></path>
  <path fill="#0995A2" d="M61.435,100.942h-0.002v0.021c-9.034-0.072-16.716,1.158-23.131,3.029   c-0.004,0.002-0.007,0.002-0.012,0.005c-0.001,0.002-0.004,0.002-0.005,0.002c-0.002,0.002-0.006,0.003-0.008,0.003   c-5.015,1.469-9.239,3.325-12.755,5.243c-2.305,1.258-4.304,2.537-6,3.761c0.124,0.435,0.521,1.429,0.596,1.453   c0.002-0.002,0.004-0.005,0.006-0.008c0.086,0.188,0.161,0.336,0.219,0.431c0,0.002-0.002,0.002-0.004,0.004   c0.004,0.004,0.007,0.014,0.01,0.018c-0.012,0.017,0.091,0.152,0.181,0.248c0.017,0.014,0.031,0.028,0.049,0.042   c0.137,0.174,0.283,0.314,0.427,0.458c11.222-4.214,25.053-6.068,40.088-4.896c0.003-0.007,0.005-0.014,0.009-0.02   c1.598,0.123,3.21,0.277,4.836,0.469c0.142,0.017,0.286,0.042,0.427,0.058h0.002l0,0c0.276,0.033,0.558,0.086,0.836,0.124   c1.619,0.208,3.244,0.436,4.879,0.713c2.95,0.499,5.927,1.094,8.931,1.831c26.045,6.393,39.653-15.375,40.701-17.127   c-0.743,1.153-7.815,9.945-48.415,4.932c-2.624-0.326-5.142-0.534-7.582-0.659c-0.728-0.038-1.428-0.045-2.143-0.065   C62.861,100.986,62.131,100.946,61.435,100.942L61.435,100.942z" data-part-id="logo__item--logo_0__10"></path>
  <path fill="#0995A2" d="M147.001,24.959c-0.364,2.003-5.044,17.836-62.645,33.822c-8.878,2.464-16.683,5.448-23.577,8.742   c0.001,0,0.001,0,0.001,0c-1.172,0.559-2.325,1.124-3.443,1.702c-0.915,0.468-1.81,0.945-2.693,1.425   c-0.993,0.543-1.966,1.088-2.915,1.641c-18.497,10.806-28.825,23.673-34.345,32.943c0.232,1.031,0.465,1.971,0.697,2.861   c0.155,0.594,0.31,1.181,0.459,1.706c0.42-0.428,0.884-0.842,1.315-1.267c0.76-0.747,1.517-1.494,2.313-2.229   c0.26-0.238,0.517-0.478,0.779-0.715c0.458-0.413,0.946-0.812,1.416-1.22c9.575-8.339,21.513-15.767,35.33-21.645l0,0   c1.302-0.555,2.618-1.095,3.951-1.623c0,0,0,0,0,0.002c11.573-4.563,24.335-8.069,37.982-10.172   C140.382,64.958,146.562,27.95,147.001,24.959" data-part-id="logo__item--logo_0__11"></path>
  <path fill="#2D2C2A" d="M61.326,98.356c0.043,0.846,0.081,1.707,0.109,2.586v0.001c0.696,0.003,1.426,0.043,2.142,0.066   c0.715,0.021,1.412,0.027,2.142,0.064c-0.052-1.102-0.118-2.185-0.19-3.242c-1.255,0.14-2.5,0.295-3.734,0.465   C61.639,98.318,61.48,98.333,61.326,98.356L61.326,98.356z" data-part-id="logo__item--logo_0__12"></path>
  <path fill="#2D2C2A" d="M66.368,111.262c-0.024,0.015-0.046,0.033-0.073,0.05c-0.917,0.535-9.661,3.437-20.417,4.468   c-2.629,0.254-7.891,1.017-7.977,0.679c-2.011,0.148-3.82,0.254-5.475,0.331c-4.013,0.185-6.989,0.174-8.836-0.026   c-0.288,0.128-1.471-0.193-1.775-0.475c-0.288-0.15-0.549-0.367-0.801-0.615c-0.146-0.145-0.292-0.284-0.429-0.46   c-0.017-0.016-0.038-0.041-0.056-0.062c-0.09-0.096-0.192-0.231-0.181-0.248c-0.002-0.004-0.006-0.014-0.01-0.018   c-0.057-0.095-0.127-0.233-0.209-0.416c-0.002,0.002-0.009-0.011-0.011-0.011c-0.075-0.024-0.472-1.019-0.596-1.453   c-0.028-0.099-0.046-0.178-0.039-0.198c-0.274-0.786-0.586-1.775-0.917-2.92c-0.007-0.025-0.015-0.056-0.024-0.084   c-0.149-0.526-0.304-1.113-0.459-1.709c-0.231-0.891-0.465-1.83-0.697-2.861c-0.875-3.911-1.688-8.759-2.054-14.146   c-0.385-5.656-0.319-10.371-0.043-14.135c-0.043-0.038-0.078-0.077-0.12-0.116c0.036,0.015,0.086,0.039,0.124,0.054   c0.44-5.971,1.423-9.521,2.021-10.496c0.304-0.489,0.795-0.919,1.413-1.217c0.379-0.185,0.795-0.327,1.279-0.372   c2.69-0.245,11.038-0.015,22.506,2.448c5.011,1.074,9.013,2.272,12.133,3.395c0.883-0.48,1.778-0.957,2.693-1.425   c1.118-0.578,2.271-1.143,3.443-1.702c0,0,0,0-0.001,0c-3.404-1.536-8.415-3.417-15.227-5.19h0.523   c-0.065-1.832-0.66-3.525-1.629-4.945c0.062-0.037,0.136-0.071,0.19-0.125l10.748-10.746c0.545,0.088,1.12-0.045,1.539-0.468   c0.699-0.693,0.699-1.819,0-2.51c-0.688-0.696-1.816-0.696-2.508,0c-0.424,0.418-0.556,0.996-0.465,1.541l-10.75,10.75   c-0.011,0.017-0.019,0.034-0.029,0.051c-1.685-1.608-3.962-2.596-6.472-2.596c-2.512,0-4.79,0.988-6.474,2.594   c-0.013-0.015-0.017-0.032-0.03-0.049l-10.748-10.75c0.091-0.545-0.043-1.123-0.464-1.541c-0.698-0.693-1.82-0.693-2.515,0   c-0.691,0.691-0.691,1.817,0,2.51c0.424,0.423,0.997,0.556,1.544,0.468l10.748,10.746c0.052,0.054,0.123,0.084,0.187,0.125   c-0.316,0.461-0.573,0.962-0.803,1.475c-8.96-1.277-15.34-1.375-17.864-1.146c-1.649,0.151-2.859,1.035-3.494,2.063   C5.52,61.843,2.928,72.753,4.22,91.812c1.141,16.843,5.66,29.73,6.569,31.002c1.027,1.436,2.052,2.048,3.696,2.261   c4.364,0.563,14.373,0.204,29.359-1.233c13.95-1.339,25.295-5.106,26.485-5.795c1.684-0.977,1.684-2.565,1.684-2.565   c0.041-1.141,0.054-2.261,0.072-3.381c-1.639-0.277-3.262-0.507-4.881-0.715C66.926,111.348,66.645,111.295,66.368,111.262   L66.368,111.262z" data-part-id="logo__item--logo_0__13"></path>
  <path fill="#2D2C2A" d="M59.694,82.727L59.694,82.727c0.219,1.337,0.451,2.907,0.674,4.674c1.319-0.287,2.682-0.545,4.069-0.794   c-0.261-2.054-0.536-3.905-0.792-5.501c0-0.002,0-0.002,0-0.002C62.312,81.632,60.997,82.172,59.694,82.727z" data-part-id="logo__item--logo_0__14"></path>
</g>

    </g>
</g></svg>